<?xml version="1.0" encoding="UTF-8"?>
<svg width="120px" height="52px" viewBox="0 0 160 52" version="1.1" xmlns="http://www.w3.org/2000/svg" xmlns:xlink="http://www.w3.org/1999/xlink">
    <!-- Generator: Sketch 63.1 (92452) - https://sketch.com -->
    <title>aiki logo</title>
  
    <g id="main" stroke="none" stroke-width="1" fill="none" fill-rule="evenodd">
        <g id="home" transform="translate(-88.000000, -69.000000)">
            <rect id="Background"  x="0" y="0" width="1735" height="4533"></rect>
            <g id="Menu">
                <g id="Main-Menu" transform="translate(0.000000, 53.000000)">
                    <rect id="Menu-background"  x="0" y="1" width="1735" height="82"></rect>
                    <g id="Logo" transform="translate(247.898148, 0.000000)"></g>
                    <g id="aiki-logo-04" transform="translate(88.000000, 16.000000)" fill-rule="nonzero">
                        <g id="Group" transform="translate(66.000000, 5.000000)" fill="#000000">
                            <path d="M30.2520765,44.9611236 C30.0080874,45.0438202 29.4610383,45.1342697 28.6083607,45.2376404 C27.7556831,45.3410112 26.6924044,45.4521348 25.413388,45.5735955 C24.1369399,45.6950562 22.6755738,45.798427 21.0344262,45.8785393 C19.3907104,45.9586517 17.6571038,46 15.8336066,46 C12.7516393,46 10.1961749,45.7234831 8.16978142,45.1730337 C6.14081967,44.6225843 4.52021858,43.8783146 3.30284153,42.9376404 C2.08546448,41.9995506 1.23535519,40.9089888 0.747377049,39.6633708 C0.261967213,38.4203371 0.0179781421,37.1023596 0.0179781421,35.7146067 C0.0179781421,31.9596629 1.21480874,29.277191 3.60846995,27.6646067 C5.99956284,26.0520225 9.79295082,25.2457303 14.9834973,25.2457303 C16.2804918,25.2457303 17.3643169,25.2664045 18.237541,25.3077528 C19.1081967,25.3491011 19.8298907,25.4111236 20.3974863,25.491236 C20.3974863,24.0621348 19.8196175,22.9405618 18.6638798,22.1239326 C17.5081421,21.3073034 15.5921858,20.8989888 12.9160109,20.8989888 C11.657541,20.8989888 10.5531694,20.9713483 9.60032787,21.1134831 C8.64748634,21.255618 7.83590164,21.428764 7.16814208,21.6329213 C6.49781421,21.8370787 5.96103825,22.041236 5.5552459,22.2453933 C5.14945355,22.4495506 4.86437158,22.6123596 4.70256831,22.7338202 C4.62038251,22.6537079 4.45857923,22.4883146 4.21715847,22.2453933 C3.9757377,22.0024719 3.73174863,21.6846067 3.48775956,21.2969663 C3.24377049,20.9093258 3.02032787,20.47 2.81743169,19.981573 C2.61453552,19.4905618 2.51437158,18.9607865 2.51437158,18.3896629 C2.51437158,14.8388764 6.12284153,13.0634831 13.3423497,13.0634831 C15.694918,13.0634831 17.9036612,13.2779775 19.9737158,13.7069663 C22.0412022,14.1359551 23.8364481,14.8698876 25.3568852,15.9113483 C26.8773224,16.952809 28.074153,18.3302247 28.9448087,20.0435955 C29.8154645,21.7569663 30.2520765,23.8993258 30.2520765,26.4706742 L30.2520765,44.9611236 L30.2520765,44.9611236 Z M20.4591257,32.1689888 C20.0944262,32.0888764 19.555082,32.0165169 18.8462295,31.9544944 C18.137377,31.8924719 17.0715301,31.8614607 15.6538251,31.8614607 C14.4364481,31.8614607 13.4425137,31.9648315 12.6720219,32.1664045 C11.9015301,32.3705618 11.3031148,32.6470787 10.876776,32.9933708 C10.4504372,33.3396629 10.155082,33.7376404 9.99584699,34.1873034 C9.83404372,34.6369663 9.75185792,35.1047191 9.75185792,35.5957303 C9.75185792,35.9626966 9.81349727,36.3503371 9.93420765,36.7586517 C10.054918,37.1669663 10.3194536,37.5339326 10.7252459,37.8595506 C11.1310383,38.1877528 11.7371585,38.4616854 12.5513115,38.6865169 C13.3628962,38.9113483 14.4364481,39.0224719 15.7745355,39.0224719 C16.827541,39.0224719 17.800929,38.9914607 18.6946995,38.9320225 C19.5859016,38.87 20.1740437,38.8002247 20.4591257,38.7175281 L20.4591257,32.1689888 Z" id="Shape"></path>
                            <path d="M34.2663388,5.54067416 C34.2663388,3.99011236 34.7825683,2.68505618 35.8175956,1.62292135 C36.852623,0.563370787 38.1393443,0.031011236 39.6803279,0.031011236 C41.2213115,0.031011236 42.518306,0.560786517 43.5738798,1.62292135 C44.6268852,2.68505618 45.1559563,3.99011236 45.1559563,5.54067416 C45.1559563,7.09123596 44.6294536,8.38595506 43.5738798,9.42741573 C42.518306,10.4688764 41.2213115,10.9883146 39.6803279,10.9883146 C38.1393443,10.9883146 36.852623,10.4688764 35.8175956,9.42741573 C34.7851366,8.38853933 34.2663388,7.09382022 34.2663388,5.54067416 Z M34.8159563,18.2733708 C34.8159563,16.6814607 35.2808197,15.5598876 36.2156831,14.9060674 C37.1479781,14.2548315 38.3859016,13.9266292 39.9268852,13.9266292 C41.0209836,13.9266292 42.014918,14.058427 42.9086885,14.3246067 C43.7998907,14.5907865 44.3700546,14.7639326 44.6114754,14.8440449 L44.6114754,45.1446067 L34.8185246,45.1446067 L34.8185246,18.2733708 L34.8159563,18.2733708 Z" id="Shape"></path>
                            <path d="M49.1702186,4.37775281 C49.1702186,2.7858427 49.635082,1.66426966 50.5699454,1.01044944 C51.5022404,0.359213483 52.7401639,0.031011236 54.2811475,0.031011236 C55.3752459,0.031011236 56.3691803,0.162808989 57.2629508,0.428988764 C58.154153,0.695168539 58.7217486,0.868314607 58.9657377,0.948426966 L58.9657377,24.3308989 C59.6951366,23.718427 60.4759016,23.0749438 61.3080328,22.4030337 C62.1375956,21.7285393 62.9517486,21.0566292 63.7402186,20.3821348 C64.5286885,19.7076404 65.2812022,19.0770787 65.9900546,18.4852809 C66.6989071,17.8934831 67.276776,17.3947191 67.7236612,16.9864045 C68.3323497,16.4566292 68.8691257,15.9966292 69.3365574,15.6089888 C69.8014208,15.2213483 70.2893989,14.9060674 70.7953552,14.6605618 C71.3013115,14.4150562 71.8380874,14.231573 72.4082514,14.1101124 C72.975847,13.9886517 73.664153,13.9266292 74.4757377,13.9266292 C75.2873224,13.9266292 76.0372678,14.0480899 76.7255738,14.2935955 C77.4138798,14.5391011 78.0225683,14.8337079 78.5516393,15.18 C79.0781421,15.5262921 79.5250273,15.8932584 79.8897268,16.2808989 C80.2544262,16.6685393 80.5189617,17.0070787 80.680765,17.2913483 C79.9102732,18.1079775 78.9471585,19.0253933 77.7914208,20.0461798 C76.6356831,21.0669663 75.4388525,22.0774157 74.2034973,23.0749438 C72.9655738,24.0750562 71.7713115,25.0338202 70.6155738,25.951236 C69.4598361,26.8686517 68.5172678,27.6335955 67.7878689,28.2460674 C70.3022404,30.5331461 72.8474317,33.1535955 75.4234426,36.1125843 C77.9994536,39.071573 80.3212022,42.0796629 82.3886885,45.1420225 L70.2842623,45.1420225 C69.4726776,44.0411236 68.5814754,42.9195506 67.6080874,41.7747191 C66.6346995,40.6324719 65.640765,39.531573 64.6262842,38.4694382 C63.6118033,37.4098876 62.6178689,36.3994382 61.6444809,35.4406742 C60.6710929,34.4819101 59.7798907,33.5955056 58.968306,32.7788764 L58.968306,45.1446067 L49.1753552,45.1446067 L49.1753552,4.37775281 L49.1702186,4.37775281 Z" id="Path"></path>
                            <path d="M83.0538798,5.54067416 C83.0538798,3.99011236 83.5701093,2.68505618 84.6051366,1.62292135 C85.6401639,0.563370787 86.9268852,0.031011236 88.4678689,0.031011236 C90.0088525,0.031011236 91.305847,0.560786517 92.3614208,1.62292135 C93.4144262,2.68505618 93.9434973,3.99011236 93.9434973,5.54067416 C93.9434973,7.09123596 93.4169945,8.38595506 92.3614208,9.42741573 C91.305847,10.4688764 90.0088525,10.9883146 88.4678689,10.9883146 C86.9268852,10.9883146 85.6401639,10.4688764 84.6051366,9.42741573 C83.5726776,8.38853933 83.0538798,7.09382022 83.0538798,5.54067416 Z M83.6034973,18.2733708 C83.6034973,16.6814607 84.0683607,15.5598876 85.003224,14.9060674 C85.9355191,14.2548315 87.1734426,13.9266292 88.7144262,13.9266292 C89.8085246,13.9266292 90.802459,14.058427 91.6962295,14.3246067 C92.5874317,14.5907865 93.1575956,14.7639326 93.3990164,14.8440449 L93.3990164,45.1446067 L83.6060656,45.1446067 L83.6060656,18.2733708 L83.6034973,18.2733708 Z" id="Shape"></path>
                        </g>
                        <path d="M45.9101848,52 L9.37301439,52 C8.20647081,52 7.26041679,51.0430152 7.26041679,49.8629932 L7.26041679,25.0747523 L2.11224205,25.0747523 C1.21490084,25.0747523 0.414985243,24.5015988 0.117580727,23.6431652 C-0.177259957,22.7847317 0.0945062386,21.8329338 0.796996217,21.2675607 L26.6865721,0.46286627 C27.4762324,-0.1699367 28.5940632,-0.151782517 29.3632128,0.504361547 L55.2527887,22.655059 C55.9296404,23.2333994 56.1757682,24.1800104 55.8706722,25.0202897 C55.5655762,25.8631626 54.7733521,26.4233488 53.8888301,26.4233488 L48.0150909,26.4233488 L48.0150909,49.8655867 C48.0202185,51.0430152 47.0767283,52 45.9101848,52 Z M11.485612,47.7285799 L43.7975872,47.7285799 L43.7975872,24.286342 C43.7975872,23.1063201 44.7436412,22.1493353 45.9101848,22.1493353 L48.1278995,22.1493353 L27.9633605,4.89767397 L8.16801333,20.8033322 L9.37301439,20.8033322 C10.539558,20.8033322 11.485612,21.7603171 11.485612,22.940339 L11.485612,47.7285799 Z" id="Shape" fill="#F8981D"></path>
                        <path d="M47.0003969,43 C40.9709727,43 35.6112027,40.1499028 32.7600993,37.7585012 C31.8697637,37.0137651 31.7429352,35.6737556 32.4785402,34.7718261 C33.2116086,33.8698966 34.5255513,33.7384726 35.4158869,34.4832086 L35.4158869,34.4832086 C35.8673962,34.8568651 46.5793265,43.5591963 56.5734078,35.1016746 C57.4586703,34.3492077 58.7776861,34.4729009 59.5158277,35.3722534 C60.2539692,36.2741829 60.1347505,37.6116155 59.2494879,38.3615055 C55.2239531,41.768222 50.9675906,43 47.0003969,43 Z" id="Path" fill="#F8981D"></path>
                        <ellipse id="Oval"  cx="38.5" cy="26" rx="2.5" ry="3"></ellipse>
                    </g>
                </g>
            </g>
        </g>
    </g>
</svg>