<?xml version="1.0" encoding="UTF-8"?>
<svg width="41px" height="40px" viewBox="0 0 41 40" version="1.1" xmlns="http://www.w3.org/2000/svg" xmlns:xlink="http://www.w3.org/1999/xlink">
    <!-- Generator: Sketch 63.1 (92452) - https://sketch.com -->
    <title>offer</title>
    <desc>Created with Sketch.</desc>
    <g id="main_v2" stroke="none" stroke-width="1" fill="none" fill-rule="evenodd">
        <g id="services" transform="translate(-719.000000, -679.000000)">
            <rect id="Background" x="0" y="0" width="1735" height="4533"></rect>
            <rect id="Rectangle-Copy-5" stroke="#D8D8D8" stroke-width="2" x="269" y="630" width="1146" height="1560" rx="10"></rect>
            <g id="offer" transform="translate(719.000000, 679.000000)" fill="#FFFFFF" fill-rule="nonzero">
                <path d="M12.2634485,17.0862666 L12.2619477,17.1115573 C12.1602792,18.8266331 13.1578323,20.4333199 14.8040386,21.2036046 L14.8209209,21.2115532 C15.4012949,21.4789127 15.8769992,21.9196949 16.177128,22.4677821 L16.1838808,22.4797049 C17.0133618,24.0007643 18.728973,24.9227937 20.5578828,24.8303017 L20.5856447,24.8288565 C21.2489293,24.7930881 21.9073369,24.9578395 22.4685777,25.3003488 C24.0172423,26.2332171 25.9830859,26.2332171 27.5317505,25.3003488 C28.0929913,24.9578395 28.7513989,24.7930881 29.4146835,24.8288565 L29.4424454,24.8303017 C31.268354,24.9235163 32.9862162,24.0007643 33.817573,22.4771758 L33.8216997,22.468866 C34.122954,21.9193335 34.5997836,21.4778289 35.1820335,21.2101079 L35.1955393,21.2036046 C36.8417457,20.4329586 37.8396739,18.8266331 37.7376301,17.111196 L37.7361295,17.0873505 C37.702365,16.4832623 37.8764397,15.8853161 38.2320923,15.3863652 C39.2559067,13.9484041 39.2559067,12.0523186 38.2324675,10.613996 C37.87719,10.1154066 37.702365,9.51782166 37.7361295,8.91373344 L37.7376301,8.88844262 C37.8396739,7.17300561 36.8417457,5.56668009 35.1940386,4.79567272 L35.1790322,4.78844688 C34.5997836,4.52180981 34.125205,4.08319557 33.824701,3.53655348 L33.8160723,3.52029514 C32.9862162,1.99923575 31.268354,1.07756765 29.4424454,1.16969835 L29.4143083,1.17114345 C28.7513989,1.20691185 28.0929913,1.04216052 27.5321256,0.699651176 L27.5313754,0.699651176 C25.9827108,-0.233217059 24.0168672,-0.233217059 22.4682026,0.699651176 C21.9069618,1.04179925 21.2485542,1.20655058 20.5852696,1.17078217 L20.5575076,1.16933699 C18.731224,1.07612246 17.0137369,1.99887439 16.1842559,3.5195726 L16.1778782,3.53077273 C15.8773743,4.07994383 15.4012949,4.52108717 14.8201706,4.78880815 L14.8044139,4.79603409 C13.1582074,5.56631882 12.1602792,7.17300561 12.262323,8.88844262 L12.2638236,8.91228826 C12.2975881,9.51637647 12.1235134,10.1143227 11.7678607,10.6129122 C10.7440464,12.0512347 10.7440464,13.9476814 11.7678607,15.3856426 C12.1231382,15.8842322 12.2975881,16.4821783 12.2634485,17.0862666 L12.2634485,17.0862666 Z M13.0325285,11.4532885 C13.581389,10.6837264 13.8503794,9.76097436 13.7978569,8.82882868 L13.7963563,8.80353795 C13.7423331,7.66689824 14.4048673,6.6111891 15.4744513,6.12813524 L15.487582,6.12199322 C16.3650836,5.71734083 17.0835169,5.05110957 17.5367114,4.22229481 L17.5442145,4.20856548 C18.0953261,3.19765714 19.2496964,2.58489781 20.4757226,2.6477634 L20.5027341,2.64884732 C21.4837802,2.70195796 22.4573229,2.45844389 23.2871791,1.95190585 C24.3350037,1.32072036 25.6645743,1.32072036 26.7123989,1.95190585 C27.542255,2.45772134 28.5157978,2.70159669 29.4964686,2.64920859 L29.5234802,2.6477634 C30.7555089,2.58562036 31.9042519,3.19765714 32.4538627,4.20567511 L32.4639921,4.22410127 C32.9171866,5.05183221 33.6348695,5.71697955 34.5112456,6.12127067 L34.5240011,6.12741269 C35.6104674,6.63611856 36.2700003,7.68640831 36.2035969,8.80389922 L36.2020962,8.83027386 C36.1495737,9.76241955 36.4189392,10.6848103 36.9677998,11.4543724 C37.6310844,12.3861568 37.6307093,13.6145658 36.9670495,14.5459889 C36.4185641,15.3159123 36.1495737,16.2386643 36.2020962,17.17081 L36.2035969,17.1957395 C36.2700003,18.3132304 35.6104674,19.3638814 34.5236259,19.8729486 L34.5123711,19.8780068 C33.6341192,20.2833817 32.9149356,20.9503356 32.4613659,21.7805956 L32.4557385,21.7914345 C31.9042519,22.8023429 30.7517573,23.4154635 29.5238554,23.3522366 L29.497219,23.3507914 C28.5161729,23.298042 27.542255,23.5419174 26.7120238,24.0480941 C25.6645743,24.6789184 24.3350037,24.6789184 23.2875542,24.0480941 C22.5327303,23.5874408 21.6571045,23.3432041 20.7634711,23.3439267 C20.6768089,23.3439267 20.5897715,23.3460945 20.5027341,23.3507914 L20.4757226,23.3518752 C19.2658284,23.4259411 18.1212122,22.8160722 17.5430891,21.7896281 L17.5352107,21.7755375 C17.0827665,20.9481678 16.3654587,20.2833817 15.4894578,19.8790907 L15.4752017,19.872226 C14.3883603,19.3635202 13.7288273,18.3128691 13.7956059,17.1957395 L13.7971066,17.1693648 C13.8492539,16.2372192 13.5798884,15.3144672 13.031403,14.5452663 C12.3684936,13.6134819 12.3688687,12.3850729 13.0325285,11.4540111 L13.0325285,11.4532885 Z" id="Shape"></path>
                <path d="M19.3738327,21.8842863 C19.7456975,22.1072746 20.2354422,21.9982003 20.4677122,21.6411956 L29.8752322,7.17264392 C30.0287863,6.94146577 30.0415825,6.64886341 29.908192,6.40651719 C29.7748015,6.16379873 29.5157758,6.00893541 29.2303821,6.00037333 C28.9449885,5.99181115 28.6766565,6.13103918 28.5277555,6.36519546 L19.1206234,20.8337473 C18.8883533,21.1911242 19.0015801,21.6612981 19.3738327,21.8842863 L19.3738327,21.8842863 Z" id="Path"></path>
                <path d="M20.4998065,14 C22.4296534,14 24,12.2054588 24,9.99980604 C24,7.79415324 22.4296534,6 20.4998065,6 C18.5699596,6 17,7.79415324 17,9.99980604 C17,12.2054588 18.5699596,14 20.4998065,14 Z M20.4998065,7.58859746 C21.5558627,7.58859746 22.4149483,8.67028648 22.4149483,9.99980604 C22.4149483,11.3293256 21.5558627,12.4114025 20.4998065,12.4114025 C19.4441373,12.4114025 18.5850517,11.3289378 18.5850517,9.99980604 C18.5850517,8.6706744 19.4441373,7.58859746 20.4998065,7.58859746 Z" id="Shape"></path>
                <path d="M26,17 C26,19.2057597 27.5699596,21 29.4998065,21 C31.4296534,21 33,19.2053718 33,17 C33,14.795016 31.4300404,13 29.5001935,13 C27.5699596,13 26,14.7938524 26,17 L26,17 Z M31.4149483,17 C31.4149483,18.329584 30.5558627,19.4113255 29.4998065,19.4113255 C28.4441373,19.4113255 27.5850517,18.329584 27.5850517,17 C27.5850517,15.6704159 28.4441373,14.5886745 29.4998065,14.5886745 C30.5558627,14.5886745 31.4149483,15.6696403 31.4149483,17 Z" id="Shape"></path>
                <path d="M40.9009139,28.773215 C39.8900902,26.9090569 37.6485363,26.1991044 35.8091502,27.1604258 L29.8295614,30.0962909 C29.0039808,28.500931 27.4202825,27.4853851 25.6774315,27.4342592 L20.1574096,27.2762337 C19.2833751,27.2502834 18.4257404,27.0198297 17.6486138,26.6030762 L17.0869208,26.3005814 C14.2109931,24.7427914 10.7830632,24.7466645 7.91011735,26.3106517 L7.94515323,24.9883505 C7.95670765,24.5502947 7.62461178,24.1854418 7.20306248,24.1734349 L1.15004726,24.000304 C0.728497967,23.9882973 0.377766013,24.333397 0.366211683,24.7714528 L0.000278165251,38.5750537 C-0.0109836955,39.0131096 0.321112176,39.3779624 0.742661474,39.3899693 L6.79567669,39.5631001 L6.81692186,39.5631001 C7.23027131,39.5627128 7.56833064,39.2207116 7.57988507,38.7915641 L7.59703036,38.1311881 L9.16954699,37.2562383 C9.78677563,36.9111386 10.5087393,36.8290273 11.1829946,37.0273338 L20.5729953,39.7660544 C20.5893951,39.7710895 20.6057949,39.7749626 20.6225674,39.7788358 C21.3012954,39.9264037 21.9930685,40.0003813 22.6867053,40 C24.1552324,40.0007686 25.6066142,39.6719363 26.9413338,39.0351866 C26.9741334,39.0196939 27.0058149,39.0018774 27.0360054,38.9817368 L40.650817,29.8298166 C40.9903673,29.602074 41.0999477,29.1384552 40.9009139,28.773215 L40.9009139,28.773215 Z M1.54774232,37.8255947 L1.87126554,25.6084454 L6.39835444,25.7378094 L6.07445842,37.955346 L1.54774232,37.8255947 Z M26.2532879,37.6176053 C24.5950451,38.3953385 22.7429863,38.6099122 20.9606268,38.2311159 L11.5955985,35.5001417 C10.5419117,35.1902879 9.41330762,35.3188772 8.4490742,35.8576356 L7.64548425,36.3045997 L7.86091787,28.1813942 C10.4069861,26.4214244 13.6727816,26.2405472 16.3847114,27.7088671 L16.9464043,28.011362 C17.9281557,28.5381135 19.0112876,28.8289887 20.1156647,28.8619107 L25.6356866,29.0199361 C27.1862127,29.0660269 28.5030416,30.2132608 28.8176195,31.791966 L20.5953587,31.5568644 C20.1738094,31.5448575 19.8230774,31.8899573 19.811523,32.3280132 C19.7999686,32.7660689 20.1320645,33.1309219 20.5536138,33.1429287 L29.6275457,33.4024313 L29.6491637,33.4024313 C30.0621403,33.402044 30.4001997,33.0600428 30.4117541,32.6308952 C30.4210721,32.2861829 30.3960998,31.9410832 30.3379551,31.6017932 L36.4699875,28.5904013 L36.4878782,28.581493 C37.3578127,28.123684 38.4100086,28.2766743 39.1252634,28.9649371 L26.2532879,37.6176053 Z" id="Shape"></path>
            </g>
        </g>
    </g>
</svg>