<?xml version="1.0" encoding="UTF-8"?>
<svg width="1615px" height="361px" viewBox="0 0 1615 361" version="1.1" xmlns="http://www.w3.org/2000/svg" xmlns:xlink="http://www.w3.org/1999/xlink">
    <!-- Generator: Sketch 63.1 (92452) - https://sketch.com -->
   
    <g id="main_v2" stroke="none" stroke-width="1" fill="none" fill-rule="evenodd">
        <g id="home" transform="translate(-69.000000, -3413.000000)">
            <rect id="Background" fill="#ECECEC" x="0" y="0" width="1735" height="4533"></rect>
            <g id="Group-3" transform="translate(70.000000, 3414.000000)">
                <g id="Group-2-Copy" transform="translate(193.000000, 55.000000)">
                    <g id="Location" transform="translate(0.000000, 210.000000)" fill="#888888" font-family="Helvetica" font-size="16" font-weight="normal">
                        <text id="We-provide-only-veri">
                          
                            <tspan x="8.375" y="30">We provide only verified, background </tspan>
                            <tspan x="2.578125" y="50">checked and high quality professionals</tspan>
                        </text>
                    </g>
                    <text id="High-Quality-&amp;-Trust" font-family="Helvetica" font-size="24" font-weight="normal" letter-spacing="-0.375" fill="#232628">
                        <tspan x="67.9257812" y="158">High Quality &amp; </tspan>
                        <tspan x="103.070312" y="187">Trusted </tspan>
                        <tspan x="72.4023438" y="216">Professionals</tspan>
                    </text>
                    <g id="skills" transform="translate(94.000000, 0.000000)" fill="#000000" fill-rule="nonzero">
                        <path d="M60.3678183,12.3403064 C59.6489941,11.7971102 58.6083875,11.9172788 58.0436129,12.6073478 L53.3259018,18.3690844 L50.9003945,15.7099029 C50.2981007,15.0495052 49.2526386,14.9833806 48.5647126,15.5615465 C47.8770074,16.1399243 47.8077072,17.1442968 48.4102217,17.8044825 L51.4784112,21.1683567 C51.9624092,21.6990486 52.6448176,22 53.359007,22 C53.3808565,22 53.4024852,21.9995761 53.4241139,21.9991522 C54.1645668,21.9800779 54.8593345,21.6394941 55.3298697,21.0647192 L60.6459019,14.5722216 C61.2108973,13.8821527 61.0864217,12.8826548 60.3678183,12.3403064 Z" id="Path"></path>
                        <path d="M94.3738302,11 L66.6261698,11 C65.7278736,11 65,11.6714 65,12.5 C65,13.3286 65.7278736,14 66.6261698,14 L94.3738302,14 C95.2721264,14 96,13.3286 96,12.5 C96,11.6714 95.2721264,11 94.3738302,11 Z" id="Path"></path>
                        <path d="M94.3738302,19 L66.6261698,19 C65.7278736,19 65,19.6714 65,20.5 C65,21.3286 65.7278736,22 66.6261698,22 L94.3738302,22 C95.2721264,22 96,21.3286 96,20.5 C96,19.6714 95.2721264,19 94.3738302,19 Z" id="Path"></path>
                        <path d="M60.3678183,31.3402992 C59.6489941,30.7971145 58.6083875,30.9172806 58.0436129,31.6073349 L53.3259018,37.3691613 L50.9003945,34.7100362 C50.2981007,34.0496525 49.2526386,33.9833174 48.5647126,34.561683 C47.8770074,35.1400485 47.8077072,36.1443997 48.4102217,36.8045714 L51.4784112,40.1683743 C51.9624092,40.6990549 52.6448176,41 53.359007,41 C53.3808565,41 53.4024852,40.9995761 53.4241139,40.9991523 C54.1645668,40.9800783 54.8593345,40.6395017 55.3298697,40.064739 L60.6459019,33.572379 C61.2108973,32.8823247 61.0864217,31.882848 60.3678183,31.3402992 Z" id="Path"></path>
                        <path d="M94.3738302,31 L66.6261698,31 C65.7278736,31 65,31.6714 65,32.5 C65,33.3286 65.7278736,34 66.6261698,34 L94.3738302,34 C95.2721264,34 96,33.3286 96,32.5 C96,31.6714 95.2721264,31 94.3738302,31 Z" id="Path"></path>
                        <path d="M94.3738302,39 L66.6261698,39 C65.7278736,39 65,39.6714 65,40.5 C65,41.3286 65.7278736,42 66.6261698,42 L94.3738302,42 C95.2721264,42 96,41.3286 96,40.5 C96,39.6714 95.2721264,39 94.3738302,39 Z" id="Path"></path>
                        <path d="M60.3678183,51.3403696 C59.6489941,50.797177 58.6083875,50.9171329 58.0436129,51.6074093 L53.3259018,57.3691082 L50.9003945,54.710156 C50.2981007,54.0495507 49.2521972,53.9832146 48.5647126,54.5618006 C47.8770074,55.1401746 47.8077072,56.1445405 48.4102217,56.8047219 L51.4781905,60.1681502 C51.9619678,60.6990505 52.6445969,61 53.359007,61 C53.3806358,61 53.4020438,60.9997881 53.4234518,60.9991523 C54.1639047,60.9805019 54.8588931,60.6401322 55.3298697,60.0649373 L60.6459019,53.5724822 C61.2108973,52.8824177 61.0864217,51.8829264 60.3678183,51.3403696 Z" id="Path"></path>
                        <path d="M94.3738302,51 L66.6261698,51 C65.7278736,51 65,51.6714 65,52.5 C65,53.3286 65.7278736,54 66.6261698,54 L94.3738302,54 C95.2721264,54 96,53.3286 96,52.5 C96,51.6714 95.2721264,51 94.3738302,51 Z" id="Path"></path>
                        <path d="M94.3738302,58 L66.6261698,58 C65.7278736,58 65,58.6714 65,59.5 C65,60.3286 65.7278736,61 66.6261698,61 L94.3738302,61 C95.2721264,61 96,60.3286 96,59.5 C96,58.6714 95.2721264,58 94.3738302,58 Z" id="Path"></path>
                        <path d="M60.3678183,71.3403696 C59.6489941,70.797177 58.6083875,70.9171329 58.0436129,71.6074093 L53.3259018,77.3691082 L50.9003945,74.710156 C50.2981007,74.0495507 49.2521972,73.9832146 48.5647126,74.5618006 C47.8770074,75.1401746 47.8077072,76.1445405 48.4102217,76.8047219 L51.4781905,80.1681502 C51.9619678,80.6990505 52.6445969,81 53.359007,81 C53.3806358,81 53.4020438,80.9997881 53.4234518,80.9991523 C54.1639047,80.9805019 54.8588931,80.6401322 55.3298697,80.0649373 L60.6459019,73.5724822 C61.2108973,72.8822058 61.0864217,71.8827144 60.3678183,71.3403696 Z" id="Path"></path>
                        <path d="M94.3738302,71 L66.6261698,71 C65.7278736,71 65,71.6714 65,72.5 C65,73.3286 65.7278736,74 66.6261698,74 L94.3738302,74 C95.2721264,74 96,73.3286 96,72.5 C96,71.6714 95.2721264,71 94.3738302,71 Z" id="Path"></path>
                        <path d="M96,79.5 C96,78.6714 95.2721264,78 94.3738302,78 L66.6261698,78 C65.7278736,78 65,78.6714 65,79.5 C65,80.3286 65.7278736,81 66.6261698,81 L94.3738302,81 C95.2721264,81 96,80.3286 96,79.5 Z" id="Path"></path>
                        <path d="M60.3678183,91.3403696 C59.6489941,90.797177 58.6083875,90.9171329 58.0436129,91.6074093 L53.3259018,97.3691082 L50.9003945,94.710156 C50.2981007,94.0495507 49.2521972,93.9830027 48.5647126,94.5618006 C47.8770074,95.1401746 47.8077072,96.1445405 48.4102217,96.8047219 L51.4781905,100.16815 C51.9619678,100.699051 52.6445969,101 53.359007,101 C53.3806358,101 53.4020438,100.999788 53.4234518,100.999152 C54.1639047,100.980502 54.8588931,100.640132 55.3298697,100.064937 L60.6459019,93.5724822 C61.2108973,92.8824177 61.0864217,91.8829264 60.3678183,91.3403696 Z" id="Path"></path>
                        <path d="M77.4101749,91 L66.5898251,91 C65.7116057,91 65,91.6714 65,92.5 C65,93.3286 65.7116057,94 66.5898251,94 L77.4101749,94 C78.2883943,94 79,93.3286 79,92.5 C79,91.6714 78.2883943,91 77.4101749,91 Z" id="Path"></path>
                        <path d="M77.4101749,98 L66.5898251,98 C65.7116057,98 65,98.6714 65,99.5 C65,100.3286 65.7116057,101 66.5898251,101 L77.4101749,101 C78.2883943,101 79,100.3286 79,99.5 C79,98.6714 78.2883943,98 77.4101749,98 Z" id="Path"></path>
                        <path d="M101.169217,0 L91.2457392,0 C90.3388288,0 89.6039753,0.740391238 89.6039753,1.65413592 C89.6039753,2.5678806 90.3388288,3.30827184 91.2457392,3.30827184 L101.169217,3.30827184 C101.471083,3.30827184 101.716472,3.55551002 101.716472,3.85965048 L101.716472,94.0852662 L90.9933454,94.0852662 C88.0427672,94.0852662 85.6420704,96.5038335 85.6420704,99.4766465 L85.6420704,109.654214 L32.9690285,109.654214 C33.6760815,108.541973 34.0882737,107.221752 34.0882737,105.805812 L34.0882737,78.0394861 C34.9461501,78.486985 35.9215768,78.7415014 36.9565449,78.7415014 C40.3105592,78.7415014 43.0393898,75.992107 43.0393898,72.612597 L43.0393898,56.6098244 C43.0393898,51.8534117 41.5390365,47.3385029 38.700536,43.5529577 C35.9557255,39.8922446 32.0537998,37.1536572 27.7136326,35.8415966 C27.5199044,35.7829299 27.3846231,35.5932556 27.3846231,35.3802029 L27.3846231,34.1078416 C32.80726,31.7044924 36.6047696,26.2427561 36.6047696,19.9012401 C36.6047696,13.4421701 32.6658494,7.89463937 27.0818818,5.56341048 L27.0818818,3.85965048 C27.0818818,3.55551002 27.3272708,3.30827184 27.6291365,3.30827184 L83.6391184,3.30827184 C84.5460288,3.30827184 85.2808824,2.5678806 85.2808824,1.65413592 C85.2808824,0.740391238 84.5460288,0 83.6391184,0 L27.6289176,0 C25.5167335,0 23.798135,1.73154948 23.798135,3.85965048 L23.798135,4.6115104 C22.954925,4.46682864 22.0898248,4.38743012 21.2063369,4.38743012 C12.7157903,4.38743012 5.80812314,11.3471519 5.80812314,19.9016812 C5.80812314,26.4847011 9.90049347,32.1193497 15.6549856,34.368754 L15.6549856,35.3804235 C15.6549856,35.5934762 15.5197043,35.7831504 15.3259761,35.8418171 C13.0375761,36.5339076 10.8908055,37.6011561 8.94564354,39.0142293 C8.21013328,39.5486255 8.04376786,40.5823501 8.57394818,41.3236236 C9.10434739,42.0646765 10.1303404,42.2318545 10.8660696,41.6978994 C12.5141817,40.5005255 14.3323806,39.5964851 16.2696621,39.0104799 C17.8413775,38.5358532 18.9387325,37.0429404 18.9387325,35.3804235 L18.9387325,35.2463282 C19.6790586,35.3568245 20.4360212,35.4159323 21.2063369,35.4159323 C22.1959922,35.4159323 23.1626628,35.3177869 24.1008762,35.1371552 L24.1008762,35.3804235 C24.1008762,37.0429404 25.1986691,38.5358532 26.7699467,39.0104799 C30.4464034,40.1220592 33.7529161,42.4435839 36.0802807,45.5474045 C38.4846988,48.7540021 39.755643,52.5792466 39.755643,56.610045 L39.755643,72.6128175 C39.755643,74.1681464 38.5000219,75.4334501 36.956326,75.4334501 C35.5168273,75.4334501 34.2850665,74.348337 34.0880548,72.9906222 L34.0880548,54.524731 C34.0880548,53.6109863 33.3532013,52.8705951 32.4462909,52.8705951 C31.5393804,52.8705951 30.8045269,53.6109863 30.8045269,54.524731 L30.8045269,105.805812 C30.8045269,107.927737 29.0909631,109.654214 26.9849083,109.654214 C24.8788535,109.654214 23.1652897,107.927737 23.1652897,105.805812 L23.1652897,75.9629942 C23.1652897,75.04947 22.4304361,74.3090788 21.5237446,74.3088582 C21.5235257,74.3088582 21.5237446,74.3088582 21.5235257,74.3088582 C20.6170531,74.3088582 19.8819806,75.0490289 19.8817617,75.9625531 L19.8743191,105.805812 C19.8743191,107.927737 18.1607553,109.654214 16.0547004,109.654214 C13.9486456,109.654214 12.2350818,107.927737 12.2350818,105.805812 L12.2350818,54.2430868 C12.2350818,53.3293421 11.5002283,52.5889508 10.5933179,52.5889508 C9.68640745,52.5889508 8.95155389,53.3293421 8.95155389,54.2430868 L8.93863868,72.4650481 C8.93863868,74.0461815 7.60421292,75.4332296 6.08328278,75.4332296 C4.53958684,75.4332296 3.28374685,74.1679259 3.28374685,72.612597 L3.28374685,56.6098244 C3.28374685,53.1531215 4.2412236,49.7861829 6.05263652,46.8726982 C6.53378281,46.098342 6.30130903,45.0776299 5.53274459,44.5926373 C4.76418015,44.1085268 3.75110233,44.3420908 3.26973713,45.116447 C1.13084703,48.5570497 0,52.5313869 0,56.6098244 L0,72.612597 C0,75.992107 2.72883063,78.7415014 6.08306388,78.7415014 C7.11102702,78.7415014 8.08951835,78.4664737 8.95133499,77.9869949 L8.95133499,105.805591 C8.95133499,109.751918 12.1378894,112.962265 16.0544815,112.962265 C18.2496294,112.962265 20.215806,111.953684 21.5198044,110.37233 C22.8238028,111.953684 24.7895415,112.962265 26.9849083,112.962265 L85.0168867,112.962265 C86.2536822,112.962265 87.5169649,113.219208 88.5350775,112.39214 C89.0131591,112.003749 89.4415501,111.526255 89.8867965,111.101032 C91.7577507,109.313903 101.491003,100.015674 104.48777,97.1542397 C104.814809,96.8419389 105,96.4078936 105,95.9539987 L105,3.85965048 C105,1.73154948 103.28162,0 101.169217,0 Z M21.2063369,32.1076604 C14.5263276,32.1076604 9.09165108,26.6320294 9.09165108,19.9014606 C9.09165108,13.1711124 14.5263276,7.69548141 21.2063369,7.69548141 C27.8863462,7.69548141 33.3210227,13.1711124 33.3210227,19.9014606 C33.3210227,26.6320294 27.8863462,32.1076604 21.2063369,32.1076604 Z M88.9255984,107.423557 L88.9255984,99.4766465 C88.9255984,98.3280146 89.8530856,97.393538 90.9933454,97.393538 L99.2814077,97.393538 L88.9255984,107.423557 Z" id="Shape"></path>
                        <path d="M23.3909798,26.3358363 C22.7127606,25.7949072 21.7454035,25.93343 21.2296443,26.6448154 C21.1975636,26.6892635 21.1251763,26.7637033 21.0019946,26.7637033 C20.8784016,26.7637033 20.8058087,26.6884004 20.7735223,26.6435208 C20.2604365,25.9299777 19.2934908,25.7884342 18.6134207,26.3265583 C17.9333506,26.8648982 17.7982414,27.8796528 18.3113273,28.5929801 C18.9449214,29.4741746 19.9509398,30 21.0019946,30 C22.0641543,30 23.0422048,29.4910045 23.6854644,28.603337 C24.2008123,27.8921673 24.0691991,26.8767655 23.3909798,26.3358363 L23.3909798,26.3358363 Z" id="Path"></path>
                    </g>
                </g>
                <g id="Group-2-Copy-7" transform="translate(1117.000000, 64.000000)">
                    <g id="Location" transform="translate(30.000000, 201.000000)" fill="#888888" font-family="Helvetica" font-size="16" font-weight="normal">
                        <text id="Super-convenient,-gu">
                            <tspan x="8.80859375" y="30">Super convenient, guaranteed</tspan>
                            <tspan x="3.5078125" y="50">service from booking to delivery</tspan>
                        </text>
                    </g>
                    <g id="gift" transform="translate(86.000000, 0.000000)" fill="#000000" fill-rule="nonzero">
                        <path d="M119.730226,74.9850754 C118.897897,71.960173 116.354346,69.7091503 113.243299,69.2438552 L113.243299,23.7735849 L117.216748,23.7735849 C118.313909,23.7735849 119.203472,22.8865253 119.203472,21.7924528 L119.203472,1.98113208 C119.203472,0.886092524 118.313909,0 117.216748,0 L29.8008681,0 C28.7037072,0 27.8141436,0.886092524 27.8141436,1.98113208 L27.8141436,21.7924528 C27.8141436,22.8865253 28.7037072,23.7735849 29.8008681,23.7735849 L33.7743172,23.7735849 L33.7743172,63.3962264 L31.7875926,63.3962264 C26.8566742,63.3846185 22.0266441,64.7940468 17.8805209,67.4552258 L17.8805209,57.4528302 C17.8805209,56.3577906 16.9909572,55.4716981 15.8937963,55.4716981 L1.98672454,55.4716981 C0.889563611,55.4716981 0,56.3577906 0,57.4528302 L0,103.018868 C0,104.11294 0.889563611,105 1.98672454,105 L15.8937963,105 C16.9909572,105 17.8805209,104.11294 17.8805209,103.018868 L17.8805209,93.0174401 C22.0276144,95.6766842 26.8566742,97.0861126 31.7875926,97.0754717 L64.4094544,97.0754717 C66.6697417,97.0716025 68.9193578,96.7755934 71.1030087,96.1951836 L114.117341,84.7050047 C118.349802,83.5548258 120.857459,79.2133605 119.730226,74.9850754 Z M31.7875926,3.96226415 L115.230023,3.96226415 L115.230023,19.8113208 L31.7875926,19.8113208 L31.7875926,3.96226415 Z M37.7477663,23.7735849 L109.26985,23.7735849 L109.26985,69.5843623 L86.2120101,75.7502488 C85.2623014,73.4924549 83.325051,71.796691 80.9570849,71.1495339 L54.1877179,63.9901792 C52.6802129,63.5945333 51.1280843,63.3942918 49.5691652,63.3962264 L37.7477663,63.3962264 L37.7477663,23.7735849 Z M13.9070718,101.037736 L3.97344908,101.037736 L3.97344908,59.4339623 L13.9070718,59.4339623 L13.9070718,101.037736 Z M113.086146,80.8772019 L70.0795739,92.3673812 C68.2296309,92.8597621 66.3243928,93.1103057 64.4094544,93.1132627 L31.7875926,93.1132627 C27.0574809,93.1238485 22.4525094,91.5935014 18.6750167,88.7543302 L17.8805209,88.1603774 L17.8805209,72.3113208 L18.6750167,71.7164009 C22.4525094,68.8772296 27.0574809,67.3459151 31.7875926,67.3584137 L49.5691652,67.3584137 C50.7827357,67.3575233 51.992426,67.514234 53.1671933,67.8237859 L79.9278295,74.9773366 C81.5090606,75.4116766 82.6663664,76.763064 82.8468012,78.3891786 C82.8681431,78.470436 82.8943353,78.5507261 82.9263479,78.6290814 C82.903066,78.7142081 82.8856044,78.8003024 82.8739637,78.8883311 C82.8759037,79.2104587 82.8322502,79.5316185 82.7430028,79.8411704 C82.2754239,81.5678897 80.7068041,82.7683706 78.9131256,82.7712727 C78.5629264,82.7741745 78.2156378,82.7296766 77.8780498,82.6406804 L60.9908912,78.1250923 C60.298254,77.9200141 59.5483817,78.1057453 59.032299,78.6107017 C58.5171862,79.1156583 58.3163798,79.8595501 58.5094256,80.5541073 C58.7024716,81.2476969 59.2583279,81.7836085 59.9616361,81.9509602 L76.8487946,86.4684829 C77.5230003,86.6455079 78.2185481,86.7345041 78.9170059,86.7335368 C82.4888416,86.731602 85.6192909,84.34902 86.5631791,80.9129941 C86.6737683,80.5154133 86.7484645,80.1091264 86.7882377,79.6989702 L111.008234,73.2225642 C111.180908,73.1790336 111.368134,73.1345354 111.544688,73.105515 C113.522682,72.851102 115.382326,74.0980156 115.893558,76.0191721 C115.982806,76.353875 116.027429,76.6992188 116.024653,77.04553 C116.027429,78.8389964 114.82259,80.4099722 113.086146,80.8772019 Z" id="Shape"></path>
                        <path d="M63,32 L83,32 C84.1044923,32 85,31.1044922 85,30 C85,28.8945315 84.1044923,28 83,28 L63,28 C61.8955078,28 61,28.8945315 61,30 C61,31.1044922 61.8955078,32 63,32 Z" id="Path"></path>
                    </g>
                    <text id="Hassle-Free-Service" font-family="Helvetica" font-size="24" font-weight="normal" letter-spacing="-0.375" fill="#232628">
                        <tspan x="43.5273438" y="179">Hassle Free Service </tspan>
                        <tspan x="106.158203" y="208">Delivery</tspan>
                    </text>
                </g>
                <g id="Group-2-Copy-6" transform="translate(672.000000, 69.000000)">
                    <g id="Location" transform="translate(0.000000, 196.000000)" fill="#888888" font-family="Helvetica" font-size="16" font-weight="normal">
                        <text id="We-match-you-with-th">
                            <tspan x="27.2929688" y="15">We match you with the right </tspan>
                            <tspan x="4.59375" y="34">professionals with the right budget</tspan>
                        </text>
                    </g>
                    <text id="Matched-to-Your-Need" font-family="Helvetica" font-size="24" font-weight="normal" letter-spacing="-0.375" fill="#232628">
                        <tspan x="7.1796875" y="164">Matched to Your Needs</tspan>
                    </text>
                    <g id="hand-shake" transform="translate(56.000000, 0.000000)" fill="#000000" fill-rule="nonzero">
                        <path d="M109.999959,59.598782 C107.256476,53.8918862 97.4415912,45.9705002 87.9589928,38.3166291 C82.66998,34.0508273 77.6722984,30.017671 74.4862218,26.8388191 C73.6881326,26.036819 72.4941389,25.781018 71.4399404,26.1588625 C69.4770726,26.8679679 68.2653314,27.4141671 67.3102456,27.8383227 C65.8541357,28.4891306 65.3648522,28.710062 63.4017113,28.9075654 C62.5337245,28.9947394 61.7533829,29.4597578 61.2698331,30.1803048 C57.1516059,36.3230703 52.8878496,35.8000267 50.0395206,34.8471067 C49.1308512,34.5449945 48.9678477,34.155436 48.8804756,33.7835847 C48.2688712,31.2323852 51.3386338,25.292844 55.3167927,21.3234335 C64.7821898,11.8737795 69.6632843,9.50836941 79.9731869,14.1054321 C91.6693017,19.3241539 103.388898,23.4098871 103.505485,23.4504774 C105.037499,23.9792418 106.685828,23.1772416 107.215794,21.6604153 C107.740026,20.1435889 106.941937,18.4872842 105.421663,17.9585198 C105.305076,17.9179295 93.8186543,13.9136495 82.3554406,8.79354318 C68.9992567,2.83656716 61.6714716,6.75939401 51.2042993,17.208824 C47.2201335,21.1839552 41.8087999,29.2271124 43.2067528,35.1260633 C43.8066165,37.6366724 45.5775389,39.4964738 48.2101681,40.3622199 C54.8097618,42.5358473 60.8324268,40.4551146 65.3176167,34.5158457 C67.1699042,34.2311684 68.1776863,33.8127335 69.6919532,33.1327769 C70.2393938,32.8886899 70.8802132,32.6040125 71.7307256,32.2610376 C75.0626043,35.3818643 79.5592617,39.0140205 84.2948272,42.8322387 C92.8572886,49.7421347 102.567327,57.5763468 104.751629,62.1093912 C105.829309,64.3467646 104.669991,65.8055658 103.883642,66.4738085 C102.730331,67.4618705 101.1519,67.7756967 100.295654,67.1769207 C99.3520358,66.5318336 98.1230932,66.4912433 97.15026,67.072312 C96.171693,67.6533807 95.6242524,68.7517723 95.7465733,69.8793126 C95.9445256,71.7273999 94.2495077,72.785201 93.5155825,73.1513315 C91.6515543,74.09281 89.7061608,73.9301761 88.9779694,73.2559403 C88.1624058,72.5005237 86.9916203,72.2795922 85.9548962,72.6631575 C84.9181722,73.0524436 84.1957145,74.0056361 84.090868,75.1097484 C83.9161239,77.0158608 82.5006966,78.8465134 80.6541428,79.5613396 C79.7629479,79.8983213 78.4698414,80.1018179 77.3107965,79.0440168 C76.5886119,78.3932089 75.5865636,78.1431287 74.6489522,78.3697809 C73.6996002,78.6021539 72.9364599,79.2881038 72.6044461,80.2004335 C72.4938658,80.491104 72.2432173,81.1884955 69.5172091,81.1884955 C67.5775495,81.1884955 64.088401,79.8808865 62.3819156,78.7533462 C60.3374095,77.4108677 47.5169255,67.868319 36.4441556,58.6161684 C34.888933,57.3085594 32.1978737,54.5072797 29.8213538,52.0315401 C27.7126839,49.834757 25.7847648,47.8414706 24.7944572,47.0046009 C23.553774,45.9585137 21.7189608,46.1154268 20.6879706,47.3475758 C19.6512465,48.5737316 19.8025094,50.4103774 21.031725,51.4447505 C21.9346606,52.2061603 23.6821017,54.0482544 25.6100207,56.0532548 C28.2079742,58.7613675 30.8930267,61.5626472 32.6988979,63.0737528 C43.5447734,72.1341207 56.5806841,81.9150357 59.1783646,83.6176515 C61.3219833,85.0241484 65.9409617,87 69.5174822,87 C72.3890194,87 74.596802,86.3431989 76.1285434,85.059018 C78.1787833,85.8552973 80.5088868,85.8610181 82.7513452,84.9892788 C85.4017219,83.9663472 87.5800165,81.9033217 88.8149659,79.4044265 C91.1098475,79.8926005 93.737016,79.5496256 96.1250035,78.3526186 C98.4608408,77.1787671 100.149852,75.3829841 100.988624,73.2848166 C103.306987,73.4068601 105.694974,72.5874252 107.669582,70.8962509 C111.013475,68.0429392 111.933612,63.603062 109.999959,59.598782 Z" id="Path"></path>
                        <path d="M59.0908347,11 L32.9091653,11 C31.3033562,11 30,12.3440517 30,14 C30,15.6559483 31.3033562,17 32.9091653,17 L59.0908347,17 C60.6966438,17 62,15.6559483 62,14 C62,12.3440517 60.6966438,11 59.0908347,11 Z" id="Path"></path>
                        <path d="M119.516524,54.2309348 C118.635044,52.9606547 116.872352,52.6111651 115.570257,53.4765678 L107.25684,58.9240803 C105.954745,59.7783014 105.607697,61.503646 106.483579,62.7739261 C107.035071,63.5672986 107.933609,64 108.849207,64 C109.389504,64 109.940995,63.8502188 110.430113,63.5285532 L118.74353,58.0810407 C120.045358,57.2265596 120.39214,55.501475 119.516524,54.2309348 Z" id="Path"></path>
                        <path d="M100.904959,67.8657484 C98.8469274,66.2445193 89.6427785,56.8219334 83.9513242,50.8889247 C82.8531861,49.739027 81.0309506,49.6988735 79.8867311,50.8026891 C78.7368525,51.9008455 78.7023589,53.7231113 79.800497,54.8673498 C81.2780653,56.4080026 94.3107412,69.9930727 97.3405244,72.3847629 C97.8635885,72.7986938 98.4960621,73 99.1169481,73 C99.9620428,73 100.807138,72.6205634 101.381942,71.9018436 C102.365281,70.6597816 102.15266,68.8488342 100.904959,67.8657484 Z" id="Path"></path>
                        <path d="M88.9301767,72.9137453 C85.5071939,70.1762703 76.907281,61.0383169 74.9642247,58.9239329 C73.8898383,57.7581152 72.0898191,57.6895377 70.9240924,58.7524892 C69.7639908,59.8210661 69.6841685,61.6327446 70.752662,62.7929368 C70.8555203,62.9014286 81.1185758,73.9825901 85.3585316,77.3771769 C85.8843408,77.7942675 86.5186332,78 87.1414077,78 C87.9757916,78 88.8099076,77.6284492 89.3756279,76.9314231 C90.3589419,75.69676 90.1588505,73.8966003 88.9301767,72.9137453 Z" id="Path"></path>
                        <path d="M77.9847294,78.9556909 C73.9106197,75.5223901 65.5741089,66.6503295 63.9456435,64.9078376 C62.8657138,63.7539422 61.0543139,63.6910122 59.9058172,64.7707305 C58.7516959,65.8504489 58.6943782,67.655603 59.7686833,68.8097662 C62.1114772,71.3175941 70.0880114,79.7727099 74.2992551,83.3259794 C74.8362737,83.777201 75.4876598,84 76.139046,84 C76.9503325,84 77.7618868,83.6516087 78.3275642,82.9832117 C79.3445516,81.7720098 79.1902759,79.9724792 77.9847294,78.9556909 Z" id="Path"></path>
                        <path d="M34.0909039,6.59304416 C29.0915135,1.88320269 9.10024129,0.357663204 3.09183979,0.00394249974 C2.26357564,-0.0365681727 1.49929757,0.235859303 0.916039914,0.786967578 C0.332508816,1.33209441 0,2.09771893 0,2.89814457 L0,55.0998165 C0,56.7006678 1.30679246,58 2.91683515,58 L20.4172992,58 C21.6773326,58 22.7973623,57.1938648 23.1881148,55.9989359 C23.6138683,54.6996037 33.6651504,24.0284026 34.9891699,8.94782895 C35.0651876,8.06611009 34.7384211,7.19608222 34.0909039,6.59304416 Z M18.2879849,52.1999049 L5.83339686,52.1999049 L5.83339686,6.00713477 C15.2079032,6.74366773 25.3231714,8.34451901 28.9982689,10.1193759 C27.4524857,22.8217827 20.4580424,45.3903055 18.2879849,52.1999049 Z" id="Shape"></path>
                        <path d="M137.063872,6 C114.010021,6 101.220646,11.8290091 100.686379,12.0726095 C99.9231015,12.4263194 99.353327,13.0818111 99.1185358,13.8765029 C98.8837446,14.6711948 99.0010026,15.5237961 99.4414081,16.231216 C103.070349,22.0023156 114.432811,54.0531657 116.617222,61.8714873 C116.969546,63.1299986 118.126436,64 119.447653,64 L137.063872,64 C138.684564,64 140,62.7007073 140,61.0999048 L140,8.89982328 C140,7.2933114 138.684564,6 137.063872,6 Z M134.128019,58.2000816 L121.6439,58.2000816 C118.860537,49.2447769 110.639543,25.8939405 106.053546,16.2429066 C110.533846,14.7407949 120.158357,12.1596096 134.128019,11.8349904 L134.128019,58.2000816 Z" id="Shape"></path>
                    </g>
                </g>
                <line x1="580.5" y1="0.590460526" x2="580.5" y2="358.409539" id="Line-3" stroke="#979797" stroke-width="2" stroke-linecap="square"></line>
                <line x1="1054" y1="0.590460526" x2="1054" y2="358.409539" id="Line-3-Copy" stroke="#979797" stroke-width="2" stroke-linecap="square"></line>
                <line x1="0.5" y1="1" x2="1612.5" y2="1" id="Line-5" stroke="#979797" stroke-width="2" stroke-linecap="square"></line>
                <line x1="0.5" y1="359" x2="1612.5" y2="359" id="Line-5-Copy" stroke="#979797" stroke-width="2" stroke-linecap="square"></line>
            </g>
        </g>
    </g>
</svg>