<?xml version="1.0" encoding="UTF-8"?>
<svg width="45px" height="46px" viewBox="0 0 45 46" version="1.1" xmlns="http://www.w3.org/2000/svg" xmlns:xlink="http://www.w3.org/1999/xlink">
   
    <g id="main_v2" stroke="none" stroke-width="1" fill="none" fill-rule="evenodd">
        <rect id="Rectangle" fill="#5A5A5A" x="0" y="0" width="45" height="46" rx="15"></rect>
        <g id="star" transform="translate(7.000000, 8.000000)" fill="#FFFFFF" fill-rule="nonzero">
            <path d="M6.73547805,18.5442821 L5.20450886,27.9437952 C5.08246633,28.6904798 5.87876364,29.2507959 6.53730998,28.8841096 L14.5002832,24.4766129 L22.4632563,28.8853198 C23.1157609,29.2483755 23.9193083,28.6989511 23.7960574,27.9450054 L22.2650882,18.5454923 L28.7418009,11.8967315 C29.2553462,11.3703007 28.9605108,10.4771836 28.2306722,10.3658465 L19.3155257,9.00196707 L15.319539,0.477418298 C15.0210785,-0.159139433 13.9782794,-0.159139433 13.679819,0.477418298 L9.68504065,9.00075688 L0.769894058,10.3646363 C0.0376388623,10.4771836 -0.254779879,11.3690905 0.258765431,11.8955213 L6.73547805,18.5442821 Z" id="Path"></path>
        </g>
    </g>
</svg>