<?xml version="1.0" encoding="UTF-8"?>
<svg width="41px" height="41px" viewBox="0 0 41 41" version="1.1" xmlns="http://www.w3.org/2000/svg" xmlns:xlink="http://www.w3.org/1999/xlink">
    <!-- Generator: Sketch 63.1 (92452) - https://sketch.com -->
    <title>guarantee</title>
    <desc>Created with Sketch.</desc>
    <g id="main_v2" stroke="none" stroke-width="1" fill="none" fill-rule="evenodd">
        <g id="services" transform="translate(-717.000000, -549.000000)">
            <rect id="Background"  x="0" y="0" width="1735" height="4533"></rect>
            <g id="guarantee" transform="translate(717.000000, 549.000000)" fill="#FFFFFF" fill-rule="nonzero">
                <path d="M34.4644103,25.5677566 C36.1980128,22.9658432 37.2086743,19.8537445 37.2086743,16.5120468 C37.2086743,7.40722656 29.713067,0 20.5,0 C11.286933,0 3.79164224,7.40722656 3.79164224,16.5120468 C3.79164224,19.8537445 4.80230368,22.9658432 6.53558966,25.5677566 L0,34.9872589 L7.47851498,33.6093521 L8.87312014,41 L15.0364775,32.1166458 C16.7495059,32.704094 18.5875614,33.0240937 20.5,33.0240937 C22.4127551,33.0240937 24.2508106,32.704094 25.9635225,32.1166458 L32.1271964,41 L33.521485,33.6093521 L41,34.9872589 L34.4644103,25.5677566 Z M10.1946083,34.8220977 L9.43400084,30.7906646 L5.3549548,31.5426484 L8.10744839,27.5753403 C9.42577126,29.0161209 10.9973134,30.2260513 12.75149,31.1375656 L10.1946083,34.8220977 Z M6.23679091,16.5120468 C6.23679091,8.73977661 12.6353257,2.41641996 20.5,2.41641996 C28.3649909,2.41641996 34.7635256,8.73977661 34.7635256,16.5120468 C34.7635256,24.2846298 28.3649909,30.6079864 20.5,30.6079864 C12.6353257,30.6079864 6.23679091,24.2846298 6.23679091,16.5120468 Z M31.5659992,30.7906646 L30.8053917,34.8220977 L28.2488266,31.1375656 C30.0030031,30.2260513 31.5745452,29.0161209 32.8928682,27.5753403 L35.6453618,31.5423355 L31.5659992,30.7906646 Z" id="Shape"></path>
                <polygon id="Path" points="17.5841429 20.6427525 13.6924086 16.7833775 12 18.4618476 17.5841429 24 29 12.6784702 27.3075913 11"></polygon>
            </g>
        </g>
    </g>
</svg>