<?xml version="1.0" encoding="UTF-8"?>
<svg width="53px" height="46px" viewBox="0 0 53 46" version="1.1" xmlns="http://www.w3.org/2000/svg" xmlns:xlink="http://www.w3.org/1999/xlink">
    <!-- Generator: Sketch 64 (93537) - https://sketch.com -->
 
    <g id="main_v2" stroke="none" stroke-width="1" fill="none" fill-rule="evenodd">
        <rect id="Rectangle-Copy-8" fill="#5A5A5A" x="4" y="0" width="45" height="46" rx="15"></rect>
        <g id="hand-shake" transform="translate(0.000000, 7.000000)" fill="#FFFFFF" fill-rule="nonzero">
            <path d="M41.6153689,22.1748275 C40.5601833,19.9202513 36.7852274,16.7908149 33.1380741,13.7670633 C31.1038385,12.0818083 29.1816532,10.4884626 27.9562391,9.2326199 C27.6492818,8.91578033 27.1900534,8.81472314 26.7845925,8.96399505 C26.0296433,9.24413547 25.563589,9.45991785 25.1962483,9.62748551 C24.636206,9.8845948 24.4480201,9.97187635 23.6929659,10.0499024 C23.3591248,10.0843415 23.0589934,10.2680525 22.8730127,10.552713 C21.2890792,12.9794846 19.6491729,12.7728501 18.5536618,12.3963878 C18.2041735,12.2770349 18.1414799,12.1231352 18.1078752,11.976231 C17.8726428,10.9683497 19.0533207,8.62186428 20.5833818,7.05370214 C24.2239191,3.32050549 26.1012632,2.38602248 30.0666103,4.20214602 C34.565116,6.26386328 39.072653,7.87798007 39.1174942,7.89401577 C39.7067305,8.10291034 40.340703,7.78607077 40.5445361,7.18683072 C40.7461639,6.58759067 40.4392066,5.93324808 39.8544859,5.72435351 C39.8096447,5.70831782 35.3917901,4.12638004 30.9828618,2.103622 C25.8458679,-0.249751247 23.0274891,1.30000751 19.0016536,5.4281774 C17.4692821,6.9985996 15.3879999,10.1761432 15.9256741,12.5065929 C16.156391,13.4984385 16.837515,14.2331748 17.8500647,14.575198 C20.3883699,15.433915 22.7047795,14.6118971 24.4298526,12.2655193 C25.1422709,12.1530542 25.5298793,11.9877466 26.1122897,11.7191217 C26.3228438,11.6226923 26.5693128,11.5102272 26.8964329,11.3747309 C28.1779247,12.6076501 29.9074084,14.042576 31.7287797,15.5510079 C35.0220341,18.2808433 38.7566644,21.3758407 39.5967803,23.1666731 C40.0112725,24.0505737 39.565381,24.6268902 39.2629393,24.8908873 C38.8193581,25.2812328 38.2122693,25.4052135 37.8829438,25.16866 C37.5200138,24.9138108 37.0473435,24.8977751 36.6731769,25.1273331 C36.296805,25.3568912 36.0862509,25.7908236 36.1332974,26.2362716 C36.2094329,26.9663802 35.557503,27.384277 35.275224,27.5289211 C34.5582901,27.9008632 33.8100619,27.8366128 33.5299882,27.570248 C33.2163099,27.2718118 32.7660078,27.1845303 32.3672678,27.3360622 C31.9685278,27.4898543 31.6906594,27.8664241 31.6503339,28.3026166 C31.5831246,29.0556487 31.0387295,29.7788695 30.3285165,30.06127 C29.9857492,30.1943985 29.4884005,30.2747923 29.042614,29.8568955 C28.7648507,29.5997862 28.3794475,29.5009891 28.0188278,29.5905307 C27.6536924,29.6823324 27.3601769,29.953325 27.2324793,30.3137515 C27.1899484,30.4285843 27.0935451,30.704097 26.0450804,30.704097 C25.2990575,30.704097 23.9570773,30.1875107 23.3007368,29.7420627 C22.5143883,29.2117008 17.5834329,25.441805 13.3246752,21.7866344 C12.7265127,21.2700482 11.6914899,20.1633697 10.7774438,19.1852998 C9.96641687,18.3174349 9.22490955,17.5299637 8.844022,17.1993485 C8.36683615,16.7860795 7.66113878,16.8480699 7.26460406,17.3348448 C6.86586405,17.819252 6.92404207,18.5448404 7.39681731,18.9534817 C7.74410023,19.2542856 8.41619296,19.9820264 9.15770028,20.7741254 C10.1569132,21.843997 11.1896256,22.9506754 11.8841915,23.5476554 C16.0556821,27.12706 21.0694939,30.9911252 22.0686018,31.6637636 C22.8930705,32.2194166 24.6696006,33 26.0451854,33 C27.1496228,33 27.99877,32.740523 28.5879013,32.2331923 C29.3764551,32.5477718 30.2726488,32.5500319 31.1351328,32.205641 C32.1545084,31.8015199 32.992314,30.9864975 33.4672946,29.9992796 C34.3499414,30.1921385 35.3603908,30.0566422 36.2788475,29.5837505 C37.1772465,29.1200068 37.8268661,28.4105616 38.1494706,27.5816559 C39.0411487,27.6298707 39.9596054,27.3061433 40.7190702,26.6380251 C42.0051826,25.5107908 42.3590815,23.7567652 41.6153689,22.1748275 Z" id="Path"></path>
            <path d="M22.909063,4 L13.090937,4 C12.4887586,4 12,4.44801725 12,5 C12,5.55198275 12.4887586,6 13.090937,6 L22.909063,6 C23.5112414,6 24,5.55198275 24,5 C24,4.44801725 23.5112414,4 22.909063,4 Z" id="Path"></path>
            <path d="M44.792796,21.5595158 C44.415019,20.9821158 43.6595792,20.8232569 43.1015385,21.2166217 L39.5386457,23.6927638 C38.980605,24.0810461 38.8318703,24.8652937 39.2072483,25.4426937 C39.4436017,25.8033176 39.8286897,26 40.2210889,26 C40.4526444,26 40.6889977,25.9319176 40.89862,25.785706 L44.4615129,23.309564 C45.0194393,22.9211634 45.1680598,22.1370341 44.792796,21.5595158 Z" id="Path"></path>
            <path d="M38.5715059,24.990945 C37.766189,24.356551 34.1645655,20.6694522 31.9374747,18.3478401 C31.5077685,17.8978801 30.7947198,17.8821679 30.3469817,18.3140957 C29.8970293,18.7438091 29.8835317,19.4568696 30.3132379,19.9046152 C30.8914169,20.5074793 35.9911596,25.8233763 37.176727,26.7592551 C37.3814042,26.921228 37.6288939,27 37.8718492,27 C38.2025385,27 38.5332277,26.8515248 38.7581513,26.5702866 C39.142936,26.0842624 39.0597365,25.3756308 38.5715059,24.990945 Z" id="Path"></path>
            <path d="M34.5720707,26.9654981 C33.2028776,25.8705081 29.7629124,22.2153268 28.9856899,21.3695732 C28.5559353,20.9032461 27.8359276,20.8758151 27.369637,21.3009957 C26.9055963,21.7284264 26.8736674,22.4530979 27.3010648,22.9171747 C27.3422081,22.9605714 31.4474303,27.393036 33.1434126,28.7508708 C33.3537363,28.917707 33.6074533,29 33.8565631,29 C34.1903166,29 34.523963,28.8513797 34.7502512,28.5725692 C35.1435768,28.078704 35.0635402,27.3586401 34.5720707,26.9654981 Z" id="Path"></path>
            <path d="M30.5938918,29.9822764 C28.9642479,28.608956 25.6296435,25.0601318 24.9782574,24.3631351 C24.5462855,23.9015769 23.8217255,23.8764049 23.3623269,24.3082922 C22.9006784,24.7401796 22.8777513,25.4622412 23.3074733,25.9239065 C24.2445909,26.9270376 27.4352046,30.309084 29.119702,31.7303918 C29.3345095,31.9108804 29.5950639,32 29.8556184,32 C30.180133,32 30.5047547,31.8606435 30.7310257,31.5932847 C31.1378206,31.1088039 31.0761104,30.3889917 30.5938918,29.9822764 Z" id="Path"></path>
            <path d="M13.6363616,2.38713668 C11.6366054,0.681849249 3.64009652,0.129498746 1.23673592,0.0014274568 C0.905430257,-0.0132402005 0.599719026,0.0853973337 0.366415965,0.284936537 C0.133003527,0.482310046 0,0.759518924 0,1.04932821 L0,19.9499336 C0,20.5295521 0.522716985,21 1.16673406,21 L8.16691967,21 C8.67093303,21 9.11894491,20.7081235 9.27524593,20.2754768 C9.44554732,19.8050289 13.4660602,8.69993887 13.995668,3.23973117 C14.026075,2.92048814 13.8953684,2.60547805 13.6363616,2.38713668 Z M7.31519396,18.8999656 L2.33335874,18.8999656 L2.33335874,2.17499707 C6.08316129,2.4416728 10.1292686,3.02129136 11.5993076,3.66391195 C10.9809943,8.26305925 8.18321698,16.434421 7.31519396,18.8999656 Z" id="Shape"></path>
            <path d="M51.9258067,3 C43.4914712,3 38.8124315,5.1105033 38.616968,5.19870344 C38.3377201,5.32677082 38.129266,5.56410401 38.0433668,5.85183727 C37.9574675,6.13957053 38.0003668,6.44827101 38.1614908,6.70440579 C39.4891521,8.79394187 43.6461502,20.39856 44.445325,23.2293316 C44.5742242,23.6849995 44.9974767,24 45.4808485,24 L51.9258067,24 C52.5187429,24 53,23.5295665 53,22.9499655 L53,4.04993602 C53,3.46826792 52.5187429,3 51.9258067,3 Z M50.8517142,21.9000295 L46.2843535,21.9000295 C45.2660502,18.6575917 42.2583694,10.2029784 40.5805655,6.70863861 C42.2196997,6.16477057 45.7408623,5.23020348 50.8517142,5.11266893 L50.8517142,21.9000295 Z" id="Shape"></path>
        </g>
    </g>
</svg>