<?xml version="1.0" encoding="UTF-8"?>
<svg width="72px" height="71px" viewBox="0 0 72 71" version="1.1" xmlns="http://www.w3.org/2000/svg" xmlns:xlink="http://www.w3.org/1999/xlink">
    <!-- Generator: Sketch 64 (93537) - https://sketch.com -->
  
    <g id="main_v2" stroke="none" stroke-width="1" fill="none" fill-rule="evenodd">
        <g id="hot-stone" fill="#888888" fill-rule="nonzero">
            <path d="M63.9353308,8.28333333 L62.4003423,8.28333333 L62.4003423,5.91666667 C62.3964426,2.65051875 59.7126876,0.00384583333 56.4007781,0 L15.6037416,0 C12.2918321,0.00384583333 9.60807708,2.65051875 9.60417737,5.91666667 L9.60417737,8.28333333 L8.06903888,8.28333333 C3.61526239,8.28318542 0.00472465681,11.8436875 0.0045746677,16.2357771 C0.0045746677,18.2706667 0.795467218,20.2281958 2.21466413,21.7055875 L9.60402738,29.3972542 L9.60402738,42.6 L12.0038531,42.6 L12.0038531,31.8958625 L21.669301,41.95745 L23.7429004,56.2719375 C23.8909396,57.2978875 23.7638988,58.3441021 23.3743771,59.3064479 L22.6490298,61.0941688 L24.876518,61.9724979 L25.6024653,60.1847771 C26.1482756,58.8377 26.3261627,57.3728812 26.1181278,55.9367583 L23.9906824,41.2486333 C23.9554349,41.0061979 23.8448929,40.780625 23.6743553,40.6026812 L3.95723755,20.0786521 C1.80549385,17.8391937 1.90208684,14.3033937 4.17292189,12.1813812 C5.22509546,11.1981792 6.61954417,10.6501479 8.06903888,10.6501479 L18.3164445,10.6501479 C20.086016,12.778225 23.0273023,13.5689875 25.647162,12.6209896 C25.8037507,13.126125 26.0023362,13.6176521 26.2411189,14.0903937 L26.8967213,15.3834812 L10.8039402,15.3834812 C10.1412884,15.3836292 9.60417737,15.9134667 9.60417737,16.5669625 C9.60417737,16.9046562 9.75071672,17.226375 10.0065981,17.4509125 L20.8058137,26.9175792 C21.0253977,27.1104625 21.3091771,27.2169625 21.6031558,27.2168146 L28.3345168,27.2168146 C29.9143521,27.2074958 31.195409,25.9516833 31.2143076,24.3936771 L31.2341062,19.89775 C33.5925349,19.4019333 35.6616346,18.0177292 37.0005873,16.0399354 C37.3181143,15.5707437 37.2554188,14.9455 36.8505982,14.5468646 L35.6893826,13.4016937 C35.0513289,12.7715687 35.0520789,11.7507958 35.6910325,11.1215583 C35.9973102,10.8199562 36.4123301,10.6504437 36.8451986,10.6501479 L38.4019355,10.6501479 C39.0645874,10.6501479 39.6018484,10.1203104 39.6018484,9.46681458 L39.6018484,2.86470208 C41.6429001,3.66345208 43.3875734,5.34156667 43.9948793,7.2340125 L44.7730228,9.84799583 C44.8087202,9.9888125 44.8702157,10.1219375 44.9545096,10.2408625 L47.4551279,13.7552146 L46.3002118,14.3249896 C45.8937413,14.5255646 45.63711,14.9352937 45.63711,15.3834812 L45.63711,18.9334812 C45.63651,19.5866812 45.099549,20.1162229 44.4371972,20.1168146 L40.8017612,20.1168146 C40.1391094,20.1168146 39.6018484,20.6466521 39.6018484,21.3001479 L39.6018484,24.3768146 C39.6039482,25.9444354 40.8920547,27.2147438 42.4816392,27.2168146 L50.4010639,27.2168146 C50.6950426,27.2169625 50.978822,27.1104625 51.198406,26.9175792 L61.9976216,17.4509125 C62.4927356,17.0164812 62.5369824,16.2686146 62.0966144,15.7803417 C61.8689309,15.5279958 61.5428546,15.3836292 61.2002795,15.3834812 L49.5204779,15.3834812 L49.7735095,15.2586396 C50.3664165,14.9657646 50.606399,14.2542854 50.3094206,13.6694229 C50.2831725,13.6176521 50.2530247,13.5679521 50.2194271,13.5206187 L48.1774755,10.6501479 L63.9351808,10.6501479 C67.0636536,10.6501479 69.5996694,13.1511229 69.5996694,16.2363687 C69.5996694,17.6658354 69.0439598,19.0410167 68.0469822,20.0786521 L48.3300144,40.603125 C48.1591768,40.7809208 48.0486348,41.0066417 48.0136874,41.2490771 L45.8862419,55.9372021 C45.678207,57.373325 45.8560941,58.8381438 46.4019044,60.1852208 L49.8288555,68.6333333 L19.8070362,68.6333333 C20.1736096,68.2940125 20.5073354,67.9218542 20.8040138,67.5215917 C21.8764359,66.0677187 21.8764359,64.0977646 20.8040138,62.6438917 C19.9457762,61.4763854 18.79131,60.5517583 17.456557,59.9629021 C17.8681271,59.6223979 18.2347005,59.2321937 18.5477277,58.8014604 C19.4289137,57.6091042 19.4289137,55.9920792 18.5477277,54.7997229 C17.9542208,53.9882521 17.1766773,53.3248458 16.2771926,52.8620146 C16.6860629,52.5194396 17.0494866,52.1273125 17.3589141,51.6951 C18.2240512,50.5023 18.2240512,48.8988833 17.3589141,47.7060833 C16.0981057,45.9726479 14.0620036,44.9511354 11.8988607,44.9666667 L9.70901975,44.9666667 C7.54602687,44.9508396 5.51007476,45.9722042 4.24941633,47.7054917 C3.38427917,48.8982917 3.38427917,50.5017083 4.24941633,51.6945083 C4.55899384,52.1267208 4.92256743,52.5187 5.33143773,52.8614229 C4.43210306,53.3244021 3.65485952,53.9878083 3.06120264,54.7991313 C2.18001665,55.9914875 2.18001665,57.6085125 3.06120264,58.8008687 C3.3742299,59.2318979 3.74095326,59.6225458 4.15282335,59.9633458 C2.81762033,60.5524979 1.66285421,61.4775687 0.804316576,62.6456667 C-0.268105525,64.0995396 -0.268105525,66.0694937 0.804316576,67.5233667 C2.38400183,69.6999604 5.01436076,71 7.84045548,71 L61.2002795,71 C61.8629314,71 62.4001923,70.4701625 62.4001923,69.8166667 L62.4001923,29.3976979 L69.7895556,21.7060312 C72.8527831,18.5178354 72.7153931,13.4842313 69.4823779,10.4631812 C67.9844367,9.06344583 65.9990309,8.28318542 63.9353308,8.28333333 Z M28.4896056,2.36666667 L28.648894,2.36666667 C28.6167963,2.39403125 28.5852986,2.42213542 28.5535009,2.45009167 C28.5314525,2.422875 28.5121039,2.3935875 28.4896056,2.36666667 L28.4896056,2.36666667 Z M12.0038531,8.28333333 L12.0038531,5.91666667 C12.0061029,3.95691875 13.6163859,2.36888542 15.6035916,2.36666667 L18.3164445,2.36666667 C16.9296453,4.01179583 16.4588295,6.2275875 17.0593858,8.28333333 L12.0038531,8.28333333 Z M19.2033301,6.50833333 C19.2033301,4.22095 21.0835935,2.36666667 23.403025,2.36666667 C25.7224566,2.36666667 27.60272,4.22095 27.60272,6.50833333 C27.60272,8.79571667 25.7224566,10.65 23.403025,10.65 C21.0847934,10.6473375 19.2061799,8.79468125 19.2033301,6.50833333 Z M28.3345168,24.8501479 L22.0595726,24.8501479 L13.960161,17.7501479 L28.0966341,17.7501479 L28.8026328,19.132725 L28.8026328,20.1168146 L28.8326306,20.1168146 L28.813732,24.3740042 C28.8152319,24.6353729 28.6016474,24.8485208 28.3366167,24.8501479 C28.3360167,24.85 28.3352668,24.8501479 28.3345168,24.8501479 L28.3345168,24.8501479 Z M36.8451986,8.28333333 C34.6174104,8.28274167 32.8109417,10.0633625 32.8103417,12.2603688 C32.8100417,13.31605 33.2352608,14.3285396 33.9922559,15.0747792 L34.4087756,15.4851 C33.4353463,16.5608979 32.1389905,17.3021083 30.7085444,17.6003083 L29.9125522,16.0374208 L28.387763,13.0314583 C28.1243821,12.4931896 27.9302962,11.92445 27.8100049,11.3385521 C29.7195162,9.65703542 30.4640621,7.03462083 29.7175664,4.61973333 C31.1163648,3.17680625 33.053924,2.36237708 35.078177,2.36664981 L37.1180288,2.36664981 C37.1456268,2.36664981 37.1741247,2.37347083 37.2018727,2.37391458 L37.2018727,8.28333333 L36.8451986,8.28333333 Z M43.3838237,2.36666667 L56.4006281,2.36666667 C58.3878338,2.36888542 59.9981168,3.95691875 60.0003667,5.91666667 L60.0003667,8.28333333 L46.8104748,8.28333333 L46.2898626,6.54191042 C45.7797496,4.95180625 44.7364254,3.49808125 43.3838237,2.36666667 Z M49.9446471,24.8501479 L42.4816392,24.8501479 C42.2181083,24.8465979 42.0052738,24.6367042 42.0016741,24.3768146 L42.0016741,22.4834813 L44.4371972,22.4834813 C46.4244028,22.4814104 48.0348358,20.8932292 48.0369357,18.9334813 L48.0369357,17.7501479 L58.0440588,17.7501479 L49.9446471,24.8501479 Z M6.21172379,49.0689875 C7.02226491,47.9644938 8.32657017,47.3172104 9.70901975,47.3333333 L11.8988607,47.3333333 C13.2814603,47.3173583 14.5857655,47.9644938 15.3966066,49.0689875 C15.6704867,49.4463229 15.6704867,49.9536771 15.3966066,50.3310125 C14.5859155,51.4356542 13.2814603,52.0829375 11.8988607,52.0666667 L9.70901975,52.0666667 C8.32642018,52.0826417 7.02211492,51.4355062 6.21127382,50.3310125 C5.93754371,49.9536771 5.93784368,49.4463229 6.21172379,49.0689875 L6.21172379,49.0689875 Z M5.01301086,56.1747563 C5.84875016,55.0616833 7.17690368,54.4136604 8.58110168,54.4333333 L13.0267788,54.4333333 C14.4312767,54.4135125 15.7595802,55.062275 16.5948696,56.1759396 C16.8744493,56.5467667 16.8744493,57.0544167 16.5948696,57.4252438 C15.7591303,58.5383167 14.4309768,59.1863396 13.0267788,59.1666667 L8.58110168,59.1666667 C7.1766037,59.1864875 5.84830019,58.537725 5.01301086,57.4240604 C4.73343117,57.0533813 4.73343117,56.5455833 5.01301086,56.1747563 Z M10.8039402,68.6333333 L7.84045548,68.6333333 C5.78695464,68.6333333 3.88629271,67.7030854 2.75732471,66.1465583 C2.28995866,65.5131792 2.28995866,64.6546708 2.75732471,64.0212917 C3.88629271,62.4635813 5.78695464,61.5333333 7.84045548,61.5333333 L13.767425,61.5333333 C15.8209258,61.5333333 17.7215877,62.4635813 18.8505557,64.0201083 C19.3179218,64.6534875 19.3179218,65.5119958 18.8505557,66.145375 C17.7209878,67.7030854 15.8207758,68.6333333 13.766825,68.6333333 L10.8039402,68.6333333 Z M51.6009768,42.6 C51.5972271,44.2778188 50.8721797,45.8753188 49.6061217,46.9959354 L50.3356687,41.95745 L51.3476452,40.9041354 C51.515633,41.4542375 51.6009768,42.0256396 51.6009768,42.6 Z M60.0003667,68.6333333 L52.4134678,68.6333333 L48.6311925,59.3064479 C48.2412208,58.34425 48.1138801,57.2978875 48.2620693,56.2719375 L49.160654,50.0684604 C53.3315511,48.1782333 55.1590183,43.3114792 53.2423076,39.1982125 C53.2145596,39.1386021 53.1860616,39.0794354 53.1569638,39.0205646 L60.0003667,31.8958625 L60.0003667,68.6333333 Z" id="Shape"></path>
            <path d="M35,34 C37.2091429,34 39,32.2091429 39,30 C39,27.7908571 37.2091429,26 35,26 C32.7908571,26 31,27.7908571 31,30 C31.0027143,32.208 32.792,33.9972857 35,34 Z M35,28.2857143 C35.9467143,28.2857143 36.7142857,29.0532857 36.7142857,30 C36.7142857,30.9467143 35.9467143,31.7142857 35,31.7142857 C34.0532857,31.7142857 33.2857143,30.9467143 33.2857143,30 C33.2868571,29.0535714 34.0537143,28.2867143 35,28.2857143 Z" id="Shape"></path>
            <path d="M35,45 C37.2091429,45 39,43.2091429 39,41 C39,38.7908571 37.2091429,37 35,37 C32.7908571,37 31,38.7908571 31,41 C31.0027143,43.2081429 32.792,44.9974286 35,45 Z M35,39.2857143 C35.9467143,39.2857143 36.7142857,40.0532857 36.7142857,41 C36.7142857,41.9467143 35.9467143,42.7142857 35,42.7142857 C34.0532857,42.7142857 33.2857143,41.9467143 33.2857143,41 C33.2868571,40.0537143 34.0537143,39.2868571 35,39.2857143 Z" id="Shape"></path>
            <path d="M35,55 C37.2091429,55 39,53.2091429 39,51 C39,48.7908571 37.2091429,47 35,47 C32.7908571,47 31,48.7908571 31,51 C31.0027143,53.2081429 32.792,54.9974286 35,55 Z M35,49.2857143 C35.9467143,49.2857143 36.7142857,50.0532857 36.7142857,51 C36.7142857,51.9467143 35.9467143,52.7142857 35,52.7142857 C34.0532857,52.7142857 33.2857143,51.9467143 33.2857143,51 C33.2868571,50.0537143 34.0537143,49.2868571 35,49.2857143 Z" id="Shape"></path>
            <path d="M35,66 C37.2091429,66 39,64.2091429 39,62 C39,59.7908571 37.2091429,58 35,58 C32.7908571,58 31,59.7908571 31,62 C31.0027143,64.2081429 32.792,65.9974286 35,66 Z M35,60.2857143 C35.9467143,60.2857143 36.7142857,61.0532857 36.7142857,62 C36.7142857,62.9467143 35.9467143,63.7142857 35,63.7142857 C34.0532857,63.7142857 33.2857143,62.9467143 33.2857143,62 C33.2868571,61.0537143 34.0537143,60.2868571 35,60.2857143 Z" id="Shape"></path>
        </g>
    </g>
</svg>